<svg xmlns="http://www.w3.org/2000/svg" viewBox="0 0 64 64">
  <!-- Background circle -->
  <circle cx="32" cy="32" r="32" fill="#0284c7"/>

  <!-- Sun rays (representing climate/weather) -->
  <circle cx="32" cy="20" r="8" fill="#fbbf24"/>
  <line x1="32" y1="8" x2="32" y2="4" stroke="#fbbf24" stroke-width="2" stroke-linecap="round"/>
  <line x1="42" y1="13" x2="45" y2="10" stroke="#fbbf24" stroke-width="2" stroke-linecap="round"/>
  <line x1="22" y1="13" x2="19" y2="10" stroke="#fbbf24" stroke-width="2" stroke-linecap="round"/>

  <!-- Rain drops -->
  <path d="M20 36 L18 42" stroke="#38bdf8" stroke-width="2" stroke-linecap="round"/>
  <path d="M28 38 L26 44" stroke="#38bdf8" stroke-width="2" stroke-linecap="round"/>
  <path d="M36 36 L34 42" stroke="#38bdf8" stroke-width="2" stroke-linecap="round"/>
  <path d="M44 38 L42 44" stroke="#38bdf8" stroke-width="2" stroke-linecap="round"/>

  <!-- Cloud (white) -->
  <ellipse cx="26" cy="32" rx="8" ry="5" fill="white"/>
  <ellipse cx="32" cy="30" rx="9" ry="6" fill="white"/>
  <ellipse cx="38" cy="32" rx="8" ry="5" fill="white"/>

  <!-- Green landscape/earth at bottom -->
  <path d="M 8 52 Q 20 48, 32 50 T 56 52 L 56 64 L 8 64 Z" fill="#16a34a"/>

  <!-- Small mountain/terrain detail -->
  <path d="M 18 52 L 24 45 L 30 52" fill="#15803d"/>
  <path d="M 34 52 L 40 46 L 46 52" fill="#15803d"/>
</svg>
